<svg id="img_sop" xmlns="http://www.w3.org/2000/svg" xmlns:xlink="http://www.w3.org/1999/xlink" width="65" height="65" viewBox="0 0 65 65">
  <defs>
    <clipPath id="clip-path">
      <rect id="사각형_740" data-name="사각형 740" width="65" height="65" fill="#fff"/>
    </clipPath>
  </defs>
  <g id="그룹_3062" data-name="그룹 3062" clip-path="url(#clip-path)">
    <path id="패스_10363" data-name="패스 10363" d="M32,0A32,32,0,1,1,0,32,32,32,0,0,1,32,0Z" transform="translate(0.5 0.5)" fill="#fff" stroke="#e0d5d5" stroke-width="1"/>
    <path id="패스_10360" data-name="패스 10360" d="M32.5,41.345a1.42,1.42,0,0,1-.62-.142L21.053,35.97a1.425,1.425,0,0,1,1.24-2.566L32.5,38.337l7.552-3.65-19-9.182a1.426,1.426,0,0,1,0-2.567L31.88,17.706a1.427,1.427,0,0,1,1.24,0l10.827,5.232a1.425,1.425,0,0,1-1.24,2.567L32.5,20.572l-7.552,3.65,19,9.182a1.425,1.425,0,0,1,0,2.566L33.12,41.2a1.42,1.42,0,0,1-.62.142" fill="#1a3457"/>
    <path id="패스_10361" data-name="패스 10361" d="M44.7,39.115l-.008,0H20.308l-.008,0-6.667,8.333a.012.012,0,0,0,.009.018H51.358a.011.011,0,0,0,.008-.018Zm-2.445,5.149H22.745a.976.976,0,1,1,0-1.951h19.51a.976.976,0,1,1,0,1.951" fill="#1a3457"/>
  </g>
</svg>
